<?xml version="1.0" encoding="UTF-8"?>
<svg id="Livello_2" data-name="Livello 2" xmlns="http://www.w3.org/2000/svg" viewBox="0 0 134.06 120.05">
  <defs>
    <style>
      .cls-1 {
        fill: #07995e;
      }

      .cls-1, .cls-2, .cls-3 {
        stroke-width: 0px;
      }

      .cls-2 {
        fill: #e51923;
      }

      .cls-3 {
        fill: #062a1e;
      }
    </style>
  </defs>
  <g id="Livello_1-2" data-name="Livello 1">
    <g>
      <path class="cls-1" d="m0,63.27c1.41-1.68,2.75-3.07,4.49-3.96,4.88-2.48,9.79-4.89,14.67-7.37,5.18-2.63,10.34-5.32,15.51-7.99,6.82-3.52,13.63-7.04,20.45-10.56,5.89-3.04,11.76-6.11,17.67-9.1,6.45-3.27,12.95-6.46,19.41-9.71.66-.33,1.26-.79,1.82-1.27.3-.26.47-.68.69-1.03-.4-.19-.8-.41-1.21-.57-2.56-.94-4.72.18-6.91,1.29-6.04,3.05-12.09,6.05-18.14,9.07-5.17,2.58-10.36,5.13-15.5,7.75-6.44,3.29-12.83,6.69-19.28,9.96-8.05,4.08-16.15,8.08-24.21,12.13-2.28,1.15-4.72,1.49-7.2,1.66-.06-.1-.13-.21-.19-.31,2.3-1.79,4.56-3.66,6.94-5.35.88-.63,1.33-1.31,1.59-2.31,1.01-3.83,2.21-7.6,4.02-11.14,2.59-5.05,5.77-9.68,9.56-13.93,3-3.38,6.16-6.54,9.86-9.16,6.45-4.57,13.5-7.81,21.16-9.73C61.64.03,68.18-.24,74.8.17c9.54.59,18.35,3.46,26.55,8.23,3.06,1.78,5.91,3.92,8.86,5.89.11.07.18.19.33.35-1.6-.25-3.1-.59-4.61-.7-3.5-.27-6.73.61-9.82,2.31-5.18,2.85-10.41,5.63-15.66,8.35-7.96,4.12-15.97,8.14-23.94,12.25-7.12,3.67-14.19,7.45-21.34,11.08-7.18,3.64-14.41,7.16-21.63,10.72-2.61,1.28-5.21,2.58-7.88,3.74-1.7.74-3.55.95-5.68.88ZM85.21,8.77c-.58-.22-.9-.37-1.23-.46-6.74-1.77-13.6-1.97-20.45-1.23-7.24.77-14.05,3.15-20.36,6.78-7.32,4.21-13.44,9.78-18.12,16.86-2.09,3.15-4.28,6.28-5.09,10.08-.08.37-.03.77-.04,1.16.37-.08.78-.09,1.11-.26,6.71-3.36,13.42-6.73,20.13-10.1,10.09-5.07,20.17-10.14,30.25-15.22,4.22-2.13,8.63-3.91,12.54-6.63.37-.26.72-.55,1.27-.97Z"/>
      <path class="cls-3" d="m129.96,66.67c-.1.45-.16.91-.3,1.35-1.09,3.48-2.19,6.96-3.29,10.44-1.71,5.37-4.03,10.44-7.16,15.16-4.56,6.89-10.16,12.73-17.18,17.13-7.77,4.87-16.22,7.85-25.36,8.88-6.89.78-13.74.53-20.48-1.08-6.18-1.48-12.09-3.7-17.49-7.14-.49-.32-.94-.71-1.7-1.3,31.11-14.63,61.76-29.49,92.73-43.67.07.08.15.16.22.25Zm-60,46.3c1.89-.12,3.79-.18,5.66-.39,1.88-.21,3.75-.52,5.6-.91,8.67-1.83,16.26-5.82,22.84-11.72,5.34-4.78,9.47-10.47,12.51-16.96.86-1.84,1.67-3.69,2.47-5.56.1-.24.1-.7-.05-.82-.17-.14-.6-.11-.85,0-2.06.86-4.13,1.68-6.15,2.64-6.32,3-12.62,6.06-18.94,9.08-5.34,2.55-10.69,5.08-16.03,7.62-5.07,2.41-10.15,4.8-15.21,7.22-2.77,1.33-5.56,2.65-8.25,4.13-.68.37-1.04,1.34-1.54,2.04.65.43,1.25,1.04,1.96,1.25,5.21,1.52,10.49,2.68,15.99,2.4Z"/>
      <path class="cls-3" d="m.87,72.57c.75-.78,1.46-1.61,2.26-2.32,1.49-1.32,2.99-2.64,4.58-3.83,1.13-.84,2.39-1.52,3.65-2.16,4.95-2.49,9.92-4.94,14.88-7.41,7.35-3.66,14.7-7.32,22.04-11,8.7-4.36,17.46-8.61,26.07-13.14,5.32-2.8,10.44-5.99,15.62-9.04,3.22-1.9,6.56-3.56,10.19-4.39,6.97-1.59,13.24-.05,18.74,4.63,2.89,2.46,4.96,5.54,6.9,8.71,1.05,1.71,1.84,3.61,2.52,5.5.61,1.7.24,2.17-1.47,2.73-1.95.64-3.91.46-5.92.31-5.26-.4-9.62-3-14.05-5.47-2.12-1.19-4.14-2.6-6.33-3.64-4.19-1.99-8.51-1.78-12.7-.03-4.55,1.91-9.02,3.99-13.49,6.09-7.8,3.67-15.59,7.36-23.34,11.14-8.45,4.12-16.84,8.34-25.27,12.51-6.18,3.06-12.37,6.1-18.56,9.14-1.95.95-3.98,1.65-6.13,1.92-.08-.09-.15-.17-.23-.26ZM118.82,30.28c-2.97-3.56-5.89-6.67-10.34-7.51-3.37-.63-6.52.28-9.59,2.26.63.36,1.07.66,1.55.87,2.2.94,4.41,1.87,6.62,2.78,2.9,1.19,5.91,1.91,9.05,1.92.81,0,1.62-.19,2.7-.32Zm-3.23,3.89c-.3.22-1.1.52-1.3,1.05-.17.46.16,1.43.57,1.71.77.52,1.75.88,2.67.96,1.14.09,1.69-1.07,1.1-2.05-.6-.99-1.5-1.52-3.05-1.66Zm7.32-.1c-.82-.11-1.19.38-1.25,1.15-.1,1.18,1.03,2.34,2.37,2.4.71.03,1.37-.19,1.46-1.05.13-1.2-1.13-2.43-2.58-2.51Z"/>
      <path class="cls-2" d="m6.31,97.39c2.81-1.79,5.51-3.81,8.46-5.32,7.79-4,15.65-7.86,23.56-11.63,11.54-5.49,23.13-10.88,34.73-16.26,8.16-3.78,16.35-7.51,24.55-11.2,5.61-2.52,11.24-5.01,16.94-7.33,2.01-.82,4.22-1.17,6.35-1.66,1.94-.45,3.92-.76,5.86-1.19.57-.13,1.09-.48,1.77-.78.13.65.3,1.19.31,1.74,0,.24-.28.6-.52.7-2.33,1-4.68,1.94-7.01,2.92-4.79,2.03-9.6,4.03-14.35,6.15-7.47,3.34-14.91,6.75-22.34,10.16-6.05,2.78-12.1,5.57-18.13,8.4-10.38,4.86-20.77,9.71-31.12,14.63-5.4,2.56-10.74,5.27-16.13,7.87-3.59,1.73-7.4,2.76-11.36,3.19-.48.05-.97-.05-1.46-.08-.04-.1-.07-.21-.11-.31Z"/>
      <path class="cls-1" d="m12.65,104.06c1.77-1.09,3.32-1.98,4.79-2.97,4.6-3.1,9.71-5.21,14.66-7.61,10.04-4.86,20.13-9.63,30.24-14.35,10.81-5.05,21.66-10.03,32.51-14.98,9.1-4.15,18.23-8.24,27.37-12.31,2.68-1.2,5.43-2.25,8.15-3.35.53-.21,1.09-.47,1.64-.5.61-.03,1.41-.02,1.81.34.51.45.12,1.87-.55,2.35-.88.63-1.78,1.25-2.76,1.7-4.89,2.24-9.81,4.4-14.7,6.64-9.81,4.49-19.62,8.98-29.4,13.54-13.15,6.13-26.27,12.32-39.39,18.5-7.62,3.59-15.15,7.36-22.85,10.76-3.18,1.4-6.6,2.44-10.21,2.33-.35-.01-.7-.05-1.32-.1Z"/>
      <path class="cls-3" d="m24.06,107.68c1.48-.97,2.87-2.12,4.45-2.89,7.57-3.69,15.18-7.29,22.78-10.89,10.6-5.01,21.2-10.02,31.82-14.99,8.54-4,17.09-7.96,25.65-11.9,6.66-3.06,13.34-6.07,20.03-9.06.88-.4,1.85-.63,2.8-.84.34-.08.85.03,1.09.26.15.14.05.7-.09,1-.83,1.77-2.09,3.08-3.92,3.92-9.1,4.17-18.18,8.37-27.25,12.61-9.8,4.58-19.59,9.19-29.38,13.81-10.89,5.14-21.76,10.3-32.64,15.45-2.14,1.01-4.23,2.13-6.41,3.05-1.09.46-2.31.71-3.5.8-1.75.13-3.51.03-5.26.03-.06-.12-.12-.24-.19-.35Z"/>
      <path class="cls-1" d="m2.92,89.73c1.45-1.08,2.83-2.26,4.35-3.22,5.98-3.78,12.32-6.89,18.72-9.9,11.11-5.22,22.15-10.56,33.25-15.8,8.86-4.18,17.74-8.33,26.66-12.4,5.13-2.34,10.33-4.55,15.55-6.71,1.83-.76,3.01-.12,3.91,1.63.27.53.16.77-.36,1.01-6.55,2.91-13.1,5.79-19.62,8.76-6.34,2.89-12.63,5.87-18.95,8.81-3.07,1.43-6.15,2.82-9.2,4.26-7.61,3.6-15.21,7.21-22.81,10.83-6.26,2.98-12.51,5.97-18.75,8.98-1.64.79-3.25,1.66-4.89,2.47-2.23,1.11-5.68,1.8-7.65,1.56-.07-.1-.14-.2-.22-.29Z"/>
      <path class="cls-1" d="m.04,82.25c.87-.77,1.69-1.61,2.62-2.29,6.67-4.93,14.1-8.51,21.55-12.08,7.68-3.68,15.32-7.45,22.98-11.16,4.63-2.24,9.26-4.46,13.91-6.64,7.47-3.49,14.95-6.97,22.45-10.39,3.2-1.46,6.43-2.86,9.99-3.21.63-.06,1.29-.02,1.9.13.34.09.75.47.84.8.14.52.16,1.11-.59,1.38-1.17.42-2.33.9-3.47,1.42-6.06,2.75-12.13,5.49-18.17,8.29-6.13,2.84-12.25,5.73-18.35,8.64-7.81,3.72-15.6,7.48-23.39,11.23-5.54,2.66-11.11,5.27-16.62,8.01-4.03,2-7.98,4.13-12.3,5.45-1.02.31-2.07.53-3.11.79-.08-.12-.16-.25-.23-.37Z"/>
    </g>
  </g>
</svg>